<svg width="202" height="202" viewBox="0 0 202 202" fill="none" xmlns="http://www.w3.org/2000/svg">
<g clip-path="url(#clip0_62_24)">
<path d="M127.933 168.333V175.067C129.719 175.067 131.432 174.357 132.695 173.095C133.957 171.832 134.667 170.119 134.667 168.333H127.933ZM74.0667 168.333H67.3333C67.3333 170.119 68.0427 171.832 69.3055 173.095C70.5682 174.357 72.2809 175.067 74.0667 175.067V168.333ZM80.8 202H121.2V188.533H80.8V202ZM48.2107 86.1867L48.076 87.1293L61.408 89.0147L61.5561 88.072L48.2107 86.1867ZM101 40.4C88.1628 40.3978 75.7558 45.0276 66.0581 53.4389C56.3604 61.8501 50.0232 73.478 48.2107 86.1867L61.5561 88.072C62.9145 78.576 67.6393 69.8888 74.8875 63.6053C82.1357 57.3219 91.4074 53.864 101 53.8667V40.4ZM153.789 86.1867C151.977 73.478 145.64 61.8501 135.942 53.4389C126.244 45.0276 113.837 40.3978 101 40.4V53.8667C110.592 53.8668 119.862 57.3257 127.11 63.6086C134.357 69.8915 139.096 78.5772 140.457 88.072L153.789 86.1867ZM153.924 87.1293L153.789 86.1867L140.457 88.072L140.579 89.0147L153.924 87.1293ZM143.285 127.381C151.769 116.419 156.052 102.145 153.924 87.1293L140.592 89.0281C141.363 94.3236 141.057 99.7203 139.692 104.895C138.326 110.069 135.93 114.914 132.647 119.14L143.285 127.381ZM121.2 146.787V168.333H134.667V146.8H121.2V146.787ZM127.933 161.6H74.0667V175.067H127.933V161.6ZM80.8 168.333V146.8H67.3333V168.333H80.8ZM48.076 87.1293C47.0523 94.2093 47.4668 101.423 49.2948 108.339C51.1227 115.255 54.3265 121.732 58.7147 127.381L69.3668 119.14C66.0833 114.914 63.6736 110.069 62.3083 104.895C60.943 99.7203 60.6367 94.3101 61.408 89.0147L48.076 87.1293ZM80.8 146.787C80.8 135.704 74.9016 126.277 69.3533 119.126L58.7147 127.381C63.8724 134.047 67.3333 140.403 67.3333 146.787H80.8ZM132.647 119.126C127.085 126.29 121.2 135.704 121.2 146.787H134.667C134.667 140.403 138.128 134.047 143.285 127.381L132.647 119.126ZM94.2667 0V26.9333H107.733V0H94.2667ZM0 107.733H26.9333V94.2667H0V107.733ZM175.067 107.733H202V94.2667H175.067V107.733ZM45.1672 49.0995L24.9672 28.8995L15.4328 38.4339L35.6328 58.6339L45.1672 49.0995ZM166.367 58.6339L186.567 38.4339L177.033 28.8995L156.833 49.0995L166.367 58.6339Z" fill="#F8F8F8"/>
</g>
<defs>
<clipPath id="clip0_62_24">
<rect width="202" height="202" fill="white"/>
</clipPath>
</defs>
</svg>
