<svg width="113" height="113" viewBox="0 0 113 113" fill="none" xmlns="http://www.w3.org/2000/svg">
<path fill-rule="evenodd" clip-rule="evenodd" d="M56.4999 18.8334C49.9118 18.8322 43.4386 20.559 37.7264 23.8413C32.0142 27.1237 27.2629 31.8469 23.9465 37.5394C20.6302 43.2319 18.865 49.6947 18.8269 56.2827C18.7889 62.8707 20.4795 69.3534 23.7299 75.0839C25.9268 72.2286 28.751 69.9169 31.984 68.3273C35.217 66.7378 38.7723 65.913 42.3749 65.9167H70.6249C74.2275 65.913 77.7828 66.7378 81.0158 68.3273C84.2488 69.9169 87.0729 72.2286 89.2699 75.0839C92.5203 69.3534 94.2108 62.8707 94.1728 56.2827C94.1348 49.6947 92.3695 43.2319 89.0532 37.5394C85.7369 31.8469 80.9855 27.1237 75.2734 23.8413C69.5612 20.559 63.088 18.8322 56.4999 18.8334ZM93.8982 85.1079C100.193 76.9011 103.598 66.8432 103.583 56.5001C103.583 30.496 82.504 9.41675 56.4999 9.41675C30.4958 9.41675 9.41656 30.496 9.41656 56.5001C9.40101 66.8433 12.8061 76.9013 19.1016 85.1079L19.0781 85.1927L20.7495 87.1372C25.1654 92.2999 30.6482 96.4438 36.8201 99.283C42.9921 102.122 49.7062 103.589 56.4999 103.583C66.0452 103.601 75.3681 100.701 83.2197 95.2732C86.567 92.9605 89.6022 90.226 92.2503 87.1372L93.9217 85.1927L93.8982 85.1079ZM56.4999 28.2501C52.7537 28.2501 49.161 29.7382 46.512 32.3872C43.8631 35.0362 42.3749 38.6289 42.3749 42.3751C42.3749 46.1213 43.8631 49.714 46.512 52.363C49.161 55.0119 52.7537 56.5001 56.4999 56.5001C60.2461 56.5001 63.8388 55.0119 66.4878 52.363C69.1367 49.714 70.6249 46.1213 70.6249 42.3751C70.6249 38.6289 69.1367 35.0362 66.4878 32.3872C63.8388 29.7382 60.2461 28.2501 56.4999 28.2501Z" fill="#F8F8F8"/>
</svg>
