<svg width="241" height="241" viewBox="0 0 241 241" fill="none" xmlns="http://www.w3.org/2000/svg">
<path d="M128.031 27.6147V45.1877H147.863C151.388 45.1877 154.832 46.2521 157.744 48.2303L174.785 59.8184C175.197 60.0995 175.689 60.2502 176.191 60.2502H217.382C219.379 60.2502 221.295 61.0436 222.707 62.456C224.12 63.8684 224.913 65.784 224.913 67.7814C224.913 69.7788 224.12 71.6944 222.707 73.1068C221.295 74.5192 219.379 75.3127 217.382 75.3127H201.536L235.336 152.433C236.014 153.974 236.155 155.699 235.737 157.33C235.318 158.962 234.364 160.405 233.027 161.43C232.023 162.173 230.988 162.866 229.914 163.499C227.367 165.019 224.716 166.357 221.981 167.505C212.898 171.304 203.147 173.246 193.302 173.219C183.461 173.25 173.713 171.311 164.633 167.515C161.896 166.367 159.245 165.025 156.7 163.499C155.635 162.882 154.605 162.205 153.617 161.47L153.567 161.43C152.23 160.405 151.276 158.962 150.857 157.33C150.439 155.699 150.58 153.974 151.258 152.433L185.078 75.3127H176.181C172.656 75.3127 169.212 74.2482 166.3 72.27L149.259 60.682C148.845 60.3986 148.355 60.248 147.853 60.2502H128.031V205.854H173.088C175.086 205.854 177.001 206.648 178.414 208.06C179.826 209.473 180.619 211.388 180.619 213.386C180.619 215.383 179.826 217.299 178.414 218.711C177.001 220.123 175.086 220.917 173.088 220.917H67.9117C65.9143 220.917 63.9987 220.123 62.5863 218.711C61.1739 217.299 60.3805 215.383 60.3805 213.386C60.3805 211.388 61.1739 209.473 62.5863 208.06C63.9987 206.648 65.9143 205.854 67.9117 205.854H112.969V60.2502H93.1364C92.6351 60.2499 92.1453 60.4003 91.7305 60.682L74.6999 72.27C71.7878 74.2482 68.3435 75.3127 64.8189 75.3127H55.922L89.7423 152.433C90.3969 153.931 90.5462 155.601 90.1675 157.192C89.7889 158.783 88.903 160.207 87.6436 161.249C86.8403 161.902 86.0369 162.514 84.5307 163.489C81.9911 165.133 79.3328 166.586 76.5777 167.837C67.5082 171.957 57.6593 174.08 47.6978 174.062C37.736 174.083 27.8864 171.96 18.818 167.837C16.0629 166.586 13.4046 165.133 10.865 163.489C9.79111 162.806 8.75528 162.065 7.76213 161.269C6.51273 160.215 5.63389 158.788 5.2544 157.198C4.87492 155.608 5.01474 153.938 5.65338 152.433L39.4637 75.3127H23.628C21.6306 75.3127 19.7149 74.5192 18.3026 73.1068C16.8902 71.6944 16.0967 69.7788 16.0967 67.7814C16.0967 65.784 16.8902 63.8684 18.3026 62.456C19.7149 61.0436 21.6306 60.2502 23.628 60.2502H64.8189C65.321 60.2502 65.813 60.0995 66.2348 59.8184L83.2554 48.2303C86.1675 46.242 89.6218 45.1877 93.1464 45.1877H112.969V27.6147C112.969 25.6173 113.762 23.7017 115.175 22.2893C116.587 20.877 118.503 20.0835 120.5 20.0835C122.497 20.0835 124.413 20.877 125.825 22.2893C127.238 23.7017 128.031 25.6173 128.031 27.6147ZM22.0213 152.613C29.9245 156.821 38.7445 159.011 47.6978 158.99C56.6512 159.011 65.4712 156.821 73.3744 152.613L47.6978 94.0705L22.0213 152.613ZM167.726 152.372C168.549 152.774 169.473 153.206 170.487 153.638C175.809 155.877 183.592 158.156 193.302 158.156C202.154 158.181 210.898 156.204 218.878 152.372L193.302 94.0604L167.726 152.372Z" fill="#F8F8F8"/>
</svg>
