<svg width="213" height="213" viewBox="0 0 213 213" fill="none" xmlns="http://www.w3.org/2000/svg">
<g clip-path="url(#clip0_62_8)">
<path d="M0 23.2969C0 10.437 10.437 0 23.2969 0H189.703C202.563 0 213 10.437 213 23.2969V149.766C213 155.944 210.546 161.87 206.177 166.239C201.807 170.608 195.882 173.062 189.703 173.062H107.299L73.0457 207.316C70.3306 210.02 66.8756 211.861 63.1161 212.605C59.3567 213.349 55.461 212.964 51.9203 211.497C48.3795 210.031 45.3521 207.549 43.2196 204.365C41.0872 201.18 39.9452 197.436 39.9375 193.604V173.062H23.2969C17.1182 173.062 11.1925 170.608 6.8235 166.239C2.45448 161.87 0 155.944 0 149.766L0 23.2969ZM23.2969 19.9688C22.4142 19.9688 21.5677 20.3194 20.9435 20.9435C20.3194 21.5677 19.9688 22.4142 19.9688 23.2969V149.766C19.9688 151.603 21.4598 153.094 23.2969 153.094H49.9219C52.5699 153.094 55.1095 154.146 56.9819 156.018C58.8543 157.891 59.9062 160.43 59.9062 163.078V192.232L96.1162 156.023C97.0421 155.095 98.1418 154.358 99.3525 153.856C100.563 153.353 101.861 153.094 103.172 153.094H189.703C190.586 153.094 191.432 152.743 192.056 152.119C192.681 151.495 193.031 150.648 193.031 149.766V23.2969C193.031 22.4142 192.681 21.5677 192.056 20.9435C191.432 20.3194 190.586 19.9688 189.703 19.9688H23.2969ZM116.484 49.9219V83.2031C116.484 85.8511 115.432 88.3907 113.56 90.2631C111.688 92.1356 109.148 93.1875 106.5 93.1875C103.852 93.1875 101.312 92.1356 99.44 90.2631C97.5675 88.3907 96.5156 85.8511 96.5156 83.2031V49.9219C96.5156 47.2739 97.5675 44.7343 99.44 42.8619C101.312 40.9894 103.852 39.9375 106.5 39.9375C109.148 39.9375 111.688 40.9894 113.56 42.8619C115.432 44.7343 116.484 47.2739 116.484 49.9219ZM119.812 119.812C119.812 123.343 118.41 126.729 115.913 129.226C113.417 131.722 110.031 133.125 106.5 133.125C102.969 133.125 99.5832 131.722 97.0866 129.226C94.5901 126.729 93.1875 123.343 93.1875 119.812C93.1875 116.282 94.5901 112.896 97.0866 110.399C99.5832 107.903 102.969 106.5 106.5 106.5C110.031 106.5 113.417 107.903 115.913 110.399C118.41 112.896 119.812 116.282 119.812 119.812Z" fill="#F8F8F8"/>
</g>
<defs>
<clipPath id="clip0_62_8">
<rect width="213" height="213" fill="white"/>
</clipPath>
</defs>
</svg>
