<svg width="303" height="329" viewBox="0 0 303 329" fill="none" xmlns="http://www.w3.org/2000/svg">
<path fill-rule="evenodd" clip-rule="evenodd" d="M147.435 295.18C137.169 289.131 127.099 282.754 117.241 276.06C107.19 269.239 97.5198 261.876 88.271 253.991C79.0824 246.067 70.4555 237.54 62.4305 228.432C54.4055 219.303 47.3235 209.372 41.3649 198.779C35.37 188.067 30.6564 176.687 27.3212 164.874C23.8261 152.347 22.0775 139.398 22.125 126.394V62.1938L32.1562 52.1625C38.837 52.1625 45.3172 51.9418 51.6168 51.4403C57.5553 50.9788 63.4738 50.1162 69.312 48.8723C75.0097 47.6284 80.5871 45.903 86.004 43.7363C91.7017 41.3689 97.1788 38.5 102.375 35.1696C109.741 30.3284 117.732 26.5148 126.129 23.8343C139.154 20.0706 152.828 19.0998 166.254 20.9854C174.887 22.1881 183.269 24.7831 191.071 28.6693C195.064 30.6154 198.936 32.7621 202.708 35.1295C207.924 38.4799 213.441 41.3488 219.179 43.7162C224.596 45.903 230.153 47.6083 235.851 48.8522C241.689 50.0961 247.627 50.9788 253.586 51.4403C259.825 51.9218 266.306 52.1425 272.986 52.1425L283.018 62.1737V126.374C283.086 139.382 281.358 152.338 277.882 164.874C274.546 176.687 269.832 188.067 263.838 198.779C257.862 209.366 250.802 219.304 242.772 228.432C234.747 237.5 226.141 246.026 216.972 253.911C207.716 261.814 198.017 269.182 187.921 275.98C178.025 282.686 167.922 289.082 157.627 295.16H147.435V295.18ZM42.1875 72.0244V126.394C42.1072 137.528 43.5918 148.663 46.6012 159.397C49.4899 169.699 53.5983 179.62 58.8393 188.949C64.1158 198.318 70.3753 207.105 77.4975 215.19C84.9206 223.556 92.8653 231.441 101.332 238.744C109.999 246.127 119.047 253.028 128.456 259.408C136.481 264.765 144.506 269.901 152.531 274.836C160.556 269.981 168.581 264.845 176.606 259.428C186.036 253.028 195.124 246.127 203.791 238.744C212.237 231.441 220.182 223.577 227.585 215.231C234.69 207.148 240.943 198.354 246.243 188.989C251.479 179.66 255.592 169.729 258.481 159.437C261.491 148.663 262.955 137.569 262.895 126.394V72.0244C259.705 72.0244 256.615 71.7837 253.566 71.563L251.981 71.4426C245.117 70.9014 238.294 69.9163 231.557 68.4934C217.486 65.4202 204.067 59.8921 191.914 52.1625C188.789 50.1857 185.561 48.3775 182.244 46.7457C176.286 43.8161 169.9 41.8522 163.325 40.9275C152.873 39.3959 142.215 40.121 132.067 43.0542C125.407 45.2209 119.047 48.2704 113.209 52.1224C106.949 56.1349 100.369 59.5857 93.4873 62.4145C86.979 65.0115 80.2691 67.0715 73.4248 68.5737C66.7038 69.978 59.8826 70.9812 53.0212 71.5028C49.5303 71.7034 45.899 71.904 42.1875 72.0244ZM163.867 158.293C170.332 155.664 175.682 150.87 179.002 144.731C182.322 138.592 183.405 131.49 182.066 124.641C180.726 117.791 177.048 111.62 171.66 107.184C166.273 102.748 159.51 100.322 152.531 100.322C145.552 100.322 138.79 102.748 133.402 107.184C128.014 111.62 124.336 117.791 122.997 124.641C121.657 131.49 122.74 138.592 126.06 144.731C129.38 150.87 134.731 155.664 141.196 158.293L132.469 210.656H172.594L163.867 158.293Z" fill="white"/>
</svg>
