<svg width="40" height="40" viewBox="0 0 40 40" fill="none" xmlns="http://www.w3.org/2000/svg">
<g clip-path="url(#clip0_68_9)">
<path d="M0 4.375C0 1.96 1.96 0 4.375 0H35.625C38.04 0 40 1.96 40 4.375V28.125C40 29.2853 39.5391 30.3981 38.7186 31.2186C37.8981 32.0391 36.7853 32.5 35.625 32.5H20.15L13.7175 38.9325C13.2076 39.4404 12.5588 39.7861 11.8528 39.9258C11.1468 40.0656 10.4152 39.9932 9.75028 39.7178C9.08535 39.4424 8.51682 38.9764 8.11637 38.3784C7.71591 37.7804 7.50144 37.0772 7.5 36.3575V32.5H4.375C3.21468 32.5 2.10188 32.0391 1.28141 31.2186C0.460936 30.3981 0 29.2853 0 28.125L0 4.375ZM4.375 3.75C4.20924 3.75 4.05027 3.81585 3.93306 3.93306C3.81585 4.05027 3.75 4.20924 3.75 4.375V28.125C3.75 28.47 4.03 28.75 4.375 28.75H9.375C9.87228 28.75 10.3492 28.9475 10.7008 29.2992C11.0525 29.6508 11.25 30.1277 11.25 30.625V36.1L18.05 29.3C18.2239 29.1257 18.4304 28.9875 18.6577 28.8931C18.8851 28.7987 19.1288 28.7501 19.375 28.75H35.625C35.7908 28.75 35.9497 28.6842 36.0669 28.5669C36.1842 28.4497 36.25 28.2908 36.25 28.125V4.375C36.25 4.20924 36.1842 4.05027 36.0669 3.93306C35.9497 3.81585 35.7908 3.75 35.625 3.75H4.375ZM21.875 9.375V15.625C21.875 16.1223 21.6775 16.5992 21.3258 16.9508C20.9742 17.3025 20.4973 17.5 20 17.5C19.5027 17.5 19.0258 17.3025 18.6742 16.9508C18.3225 16.5992 18.125 16.1223 18.125 15.625V9.375C18.125 8.87772 18.3225 8.40081 18.6742 8.04917C19.0258 7.69754 19.5027 7.5 20 7.5C20.4973 7.5 20.9742 7.69754 21.3258 8.04917C21.6775 8.40081 21.875 8.87772 21.875 9.375ZM22.5 22.5C22.5 23.163 22.2366 23.7989 21.7678 24.2678C21.2989 24.7366 20.663 25 20 25C19.337 25 18.7011 24.7366 18.2322 24.2678C17.7634 23.7989 17.5 23.163 17.5 22.5C17.5 21.837 17.7634 21.2011 18.2322 20.7322C18.7011 20.2634 19.337 20 20 20C20.663 20 21.2989 20.2634 21.7678 20.7322C22.2366 21.2011 22.5 21.837 22.5 22.5Z" fill="#F8F8F8"/>
</g>
<defs>
<clipPath id="clip0_68_9">
<rect width="40" height="40" fill="white"/>
</clipPath>
</defs>
</svg>
